Coordinates
version=1
nRows=13
nColumns=63
inDegrees=yes

Units are S.I. units (second, meters, Newtons, ...)
If the header above contains a line with 'inDegrees', this indicates whether rotational values are in degrees (yes) or radians (no).

endheader
time	pelvis_tilt	pelvis_list	pelvis_rotation	pelvis_tx	pelvis_ty	pelvis_tz	hip_flexion_r	hip_adduction_r	hip_rotation_r	knee_angle_r	knee_angle_r_beta	ankle_angle_r	subtalar_angle_r	mtp_angle_r	hip_flexion_l	hip_adduction_l	hip_rotation_l	knee_angle_l	knee_angle_l_beta	ankle_angle_l	subtalar_angle_l	mtp_angle_l	L5_S1_Flex_Ext	L5_S1_Lat_Bending	L5_S1_axial_rotation	L4_L5_Flex_Ext	L4_L5_Lat_Bending	L4_L5_axial_rotation	L3_L4_Flex_Ext	L3_L4_Lat_Bending	L3_L4_axial_rotation	L2_L3_Flex_Ext	L2_L3_Lat_Bending	L2_L3_axial_rotation	L1_L2_Flex_Ext	L1_L2_Lat_Bending	L1_L2_axial_rotation	L1_T12_Flex_Ext	L1_T12_Lat_Bending	L1_T12_axial_rotation	Abs_r3	Abs_r2	Abs_r1	Abs_t1	Abs_t2	neck_flexion	neck_bending	neck_rotation	arm_flex_r	arm_add_r	arm_rot_r	elbow_flex_r	pro_sup_r	wrist_flex_r	wrist_dev_r	arm_flex_l	arm_add_l	arm_rot_l	elbow_flex_l	pro_sup_l	wrist_flex_l	wrist_dev_l
1.415094	4.454423	-3.335353	89.322343	0.120706	0.595903	0.826208	-6.214938	2.218116	24.416802	1.368679	0.023888	18.448695	-12.698555	0.000000	-3.187597	-5.087398	-15.443596	9.583662	0.167266	28.264655	3.439757	0.000000	-0.133656	0.979793	-1.553956	-0.248213	1.303124	-1.651079	-0.219584	2.382268	-1.651079	-0.152756	2.382268	-1.359712	-0.124113	1.997993	-1.262590	-0.076371	1.517699	-1.165467	-0.954695	11.083609	-8.642640	0.000000	0.000000	23.940570	-5.397667	27.144452	12.510267	-11.599182	133.335102	5.798432	9.258347	-6.309569	-7.936337	80.646916	-38.567851	-6.863020	134.436048	81.921352	0.155576	21.194364
1.433962	4.571755	-3.307852	89.408596	0.120704	0.596038	0.826037	-6.198759	2.358357	24.582587	1.440162	0.025136	18.469932	-13.006378	0.000000	-3.218231	-5.216340	-15.263394	9.573817	0.167095	28.290391	3.301307	0.000000	-0.119791	0.997484	-1.603778	-0.222464	1.326653	-1.704014	-0.196804	2.425282	-1.704014	-0.136909	2.425282	-1.403306	-0.111238	2.034069	-1.303069	-0.068448	1.545102	-1.202833	-0.855654	11.283736	-8.919731	0.000000	0.000000	23.728708	-4.945918	28.338685	12.726948	-11.784699	133.389579	6.270841	10.168398	-6.823025	-7.968759	79.557589	-38.982951	-8.419289	134.930118	81.391323	1.814910	22.630343
1.452830	4.651659	-3.278483	89.462396	0.120780	0.596170	0.825863	-6.189884	2.459297	24.668951	1.521877	0.026562	18.479852	-13.205841	0.000000	-3.259232	-5.306163	-15.161548	9.549277	0.166666	28.323769	3.258358	0.000000	-0.107097	1.010509	-1.638499	-0.198890	1.343977	-1.740905	-0.175950	2.456951	-1.740905	-0.122401	2.456951	-1.433687	-0.099450	2.060630	-1.331280	-0.061195	1.565278	-1.228874	-0.764985	11.431079	-9.112839	0.000000	0.000000	23.583524	-4.531774	29.464213	12.898722	-11.957661	133.485642	6.689135	10.961700	-7.416147	-8.089097	78.469196	-39.514012	-9.833215	135.420822	80.824821	3.137279	23.945031
1.471698	4.689019	-3.249311	89.498771	0.120927	0.596298	0.825695	-6.185373	2.517447	24.601409	1.617038	0.028223	18.499686	-13.203555	0.000000	-3.301526	-5.351142	-15.081295	9.514987	0.166068	28.355563	3.260164	0.000000	-0.095565	1.017997	-1.661936	-0.177473	1.353936	-1.765807	-0.157003	2.475159	-1.765807	-0.109221	2.475159	-1.454194	-0.088741	2.075900	-1.350323	-0.054606	1.576878	-1.246452	-0.682609	11.515789	-9.243192	0.000000	0.000000	23.516852	-4.145378	30.487397	13.033198	-12.105532	133.635097	7.051506	11.653192	-8.082701	-8.263390	77.412803	-40.172277	-11.061121	135.901772	80.229382	4.085723	25.158941
1.490566	4.681716	-3.222654	89.522505	0.121131	0.596426	0.825547	-6.181180	2.530383	24.339229	1.724537	0.030099	18.548399	-12.935608	0.000000	-3.339994	-5.348236	-15.009842	9.471998	0.165318	28.374016	3.293173	0.000000	-0.085151	1.019824	-1.677487	-0.158133	1.356366	-1.782330	-0.139894	2.479601	-1.782330	-0.097319	2.479601	-1.467801	-0.079071	2.079626	-1.362958	-0.048655	1.579708	-1.258115	-0.608222	11.536457	-9.329681	0.000000	0.000000	23.519083	-3.762833	31.433688	13.138103	-12.220992	133.852319	7.352122	12.252192	-8.799363	-8.445336	76.405488	-40.956613	-12.072584	136.366550	79.638306	4.607303	26.233636
1.509434	4.633042	-3.193495	89.512587	0.121415	0.596558	0.825430	-6.186802	2.501619	24.168145	1.829263	0.031927	18.537001	-12.788664	0.000000	-3.385024	-5.304493	-15.026743	9.421833	0.164442	28.389457	3.428745	0.000000	-0.076935	1.016167	-1.681079	-0.142876	1.351502	-1.786146	-0.126396	2.470709	-1.786146	-0.087929	2.470709	-1.470944	-0.071442	2.072168	-1.365877	-0.043961	1.574043	-1.260809	-0.549538	11.495085	-9.349657	0.000000	0.000000	23.574111	-3.395942	32.286604	13.201057	-12.288537	134.275785	7.537732	12.636678	-9.488258	-8.616804	75.464938	-41.829283	-12.840318	136.765135	78.984381	4.725193	26.976769
1.528302	4.555969	-3.164878	89.522017	0.121687	0.596686	0.825358	-6.193410	2.444694	23.752904	1.941058	0.033878	18.577216	-12.330261	0.000000	-3.417156	-5.232320	-15.008219	9.379476	0.163703	28.394449	3.569608	0.000000	-0.070140	1.009059	-1.686507	-0.130257	1.342048	-1.791914	-0.115233	2.453426	-1.791914	-0.080163	2.453426	-1.475694	-0.065132	2.057673	-1.370287	-0.040078	1.563032	-1.264880	-0.501004	11.414676	-9.379846	0.000000	0.000000	23.646689	-3.048219	33.102078	13.224301	-12.308129	134.781285	7.604165	12.827974	-10.081011	-8.770134	74.590949	-42.780026	-13.377345	137.101066	78.276997	4.405394	27.413966
1.547170	4.451102	-3.130974	89.518500	0.121969	0.596806	0.825340	-6.209457	2.357522	23.329711	2.047064	0.035728	18.605472	-11.851653	0.000000	-3.453739	-5.129988	-15.014365	9.332775	0.162888	28.386883	3.745030	0.000000	-0.065690	0.998644	-1.689196	-0.121994	1.328196	-1.794770	-0.107923	2.428102	-1.794770	-0.075078	2.428102	-1.478046	-0.061000	2.036434	-1.372471	-0.037536	1.546899	-1.266897	-0.469221	11.296857	-9.394799	0.000000	0.000000	23.713559	-2.743085	33.881568	13.211288	-12.276181	135.343200	7.552267	12.854061	-10.565429	-8.875268	73.805661	-43.771790	-13.668219	137.336745	77.530167	3.713358	27.517490
1.566038	4.326040	-3.090993	89.515276	0.122237	0.596906	0.825379	-6.236411	2.248666	22.871078	2.144021	0.037420	18.640575	-11.314707	0.000000	-3.491162	-5.005744	-15.017892	9.288044	0.162107	28.372078	3.931271	0.000000	-0.062940	0.985556	-1.689655	-0.116886	1.310790	-1.795258	-0.103405	2.396282	-1.795258	-0.071934	2.396282	-1.478448	-0.058446	2.009747	-1.372844	-0.035964	1.526627	-1.267241	-0.449576	11.148811	-9.397352	0.000000	0.000000	23.751654	-2.518378	34.590068	13.161502	-12.200394	135.857746	7.409431	12.761061	-10.936579	-8.929389	73.141628	-44.745376	-13.706849	137.449372	76.818718	2.787728	27.411976
1.584906	4.188636	-3.044677	89.516913	0.122479	0.596974	0.825460	-6.277882	2.124938	22.385916	2.224755	0.038829	18.691768	-10.723768	0.000000	-3.527930	-4.865838	-14.976241	9.248993	0.161425	28.351813	4.073074	0.000000	-0.061401	0.970644	-1.690182	-0.114027	1.290956	-1.795819	-0.100875	2.360023	-1.795819	-0.070175	2.360023	-1.478909	-0.057017	1.979336	-1.373273	-0.035084	1.503527	-1.267637	-0.438580	10.980114	-9.400286	0.000000	0.000000	23.760045	-2.418185	35.178152	13.099504	-12.099023	136.380402	7.234797	12.569874	-11.229839	-8.956392	72.606259	-45.690604	-13.510872	137.425488	76.130965	1.762194	27.133510
1.603774	4.042571	-2.996704	89.499817	0.122715	0.597013	0.825587	-6.325631	1.987973	21.938722	2.287969	0.039933	18.734183	-10.150139	0.000000	-3.567724	-4.712835	-14.934498	9.205620	0.160668	28.332558	4.198307	0.000000	-0.061259	0.954562	-1.687109	-0.113763	1.269568	-1.792553	-0.100642	2.320923	-1.792553	-0.070012	2.320923	-1.476220	-0.056885	1.946544	-1.370776	-0.035003	1.478617	-1.265332	-0.437564	10.798201	-9.383192	0.000000	0.000000	23.718207	-2.401424	35.676477	13.031581	-11.981058	136.807444	7.032084	12.271022	-11.347207	-8.943720	72.210055	-46.563058	-13.158310	137.301848	75.382439	0.767525	26.856120
1.622642	3.893842	-2.953741	89.465725	0.122939	0.597015	0.825745	-6.372940	1.842796	21.526826	2.329743	0.040662	18.781154	-9.586320	0.000000	-3.604674	-4.552981	-14.893194	9.160366	0.159879	28.321008	4.303148	0.000000	-0.061307	0.937651	-1.678655	-0.113853	1.247076	-1.783571	-0.100721	2.279804	-1.783571	-0.070068	2.279804	-1.468823	-0.056930	1.912058	-1.363907	-0.035031	1.452421	-1.258991	-0.437909	10.606894	-9.336177	0.000000	0.000000	23.689998	-2.535357	35.942496	12.991446	-11.880511	137.071268	6.915914	12.065218	-11.454342	-8.917562	71.963929	-47.335857	-12.704041	137.113718	74.584895	-0.035082	26.593060
1.641509	3.747732	-2.917725	89.417819	0.123153	0.596991	0.825902	-6.421543	1.694546	21.189022	2.342792	0.040889	18.823031	-9.084125	0.000000	-3.638407	-4.394521	-14.873933	9.115324	0.159092	28.317968	4.408041	0.000000	-0.061140	0.920643	-1.668141	-0.113543	1.224455	-1.772400	-0.100446	2.238451	-1.772400	-0.069877	2.238451	-1.459623	-0.056774	1.877375	-1.355364	-0.034935	1.426076	-1.251106	-0.436715	10.414494	-9.277698	0.000000	0.000000	23.699097	-2.785001	35.975392	13.011440	-11.812508	137.292884	6.939551	11.884484	-11.597756	-8.871537	71.845366	-48.021791	-12.221789	136.936790	73.780146	-0.692295	26.325602
